<?xml version="1.0" encoding="UTF-8" standalone="no"?>
<!-- Created with Inkscape (http://www.inkscape.org/) -->

<svg
   width="37"
   height="37"
   viewBox="0 0 9.7895831 9.7895833"
   version="1.1"
   id="svg10867"
   inkscape:version="1.2.2 (732a01da63, 2022-12-09)"
   sodipodi:docname="icon-notification.svg"
   xmlns:inkscape="http://www.inkscape.org/namespaces/inkscape"
   xmlns:sodipodi="http://sodipodi.sourceforge.net/DTD/sodipodi-0.dtd"
   xmlns="http://www.w3.org/2000/svg"
   xmlns:svg="http://www.w3.org/2000/svg">
  <sodipodi:namedview
     id="namedview10869"
     pagecolor="#000000"
     bordercolor="#666666"
     borderopacity="1.0"
     inkscape:showpageshadow="2"
     inkscape:pageopacity="0"
     inkscape:pagecheckerboard="true"
     inkscape:deskcolor="#d1d1d1"
     inkscape:document-units="px"
     showgrid="false"
     inkscape:zoom="5.6568543"
     inkscape:cx="-3.1819805"
     inkscape:cy="28.991378"
     inkscape:window-width="1920"
     inkscape:window-height="1009"
     inkscape:window-x="-8"
     inkscape:window-y="-8"
     inkscape:window-maximized="1"
     inkscape:current-layer="layer1" />
  <defs
     id="defs10864" />
  <g
     inkscape:label="Layer 1"
     inkscape:groupmode="layer"
     id="layer1">
    <g
       id="g11738"
       transform="matrix(1.0008453,0,0,1.0008453,-0.00413751,-0.00823491)">
      <g
         id="path3970-4"
         style="fill:#ffffff;fill-opacity:1"
         transform="matrix(0.8128905,0,0,0.8129172,-15.047039,0.44622986)">
        <path
           style="color:#000000;fill:#ffffff;fill-opacity:1;fill-rule:evenodd;stroke-width:0.4;-inkscape-stroke:none"
           d="m 24.550297,0.803492 c -1.094916,0 -2.045049,0.409587 -2.760167,1.192116 -0.710503,0.777861 -1.078347,1.75384 -1.078347,2.864047 v 5.164186 h 7.637456 V 4.859655 c 0,-1.106842 -0.34893,-2.080146 -1.033826,-2.859099 C 26.622212,1.212241 25.667677,0.803492 24.550297,0.803492 Z m 0,0.751874 c 0.943867,0 1.642956,0.304989 2.201211,0.939843 0.56649,0.644288 0.845857,1.410089 0.845857,2.364446 V 9.271967 H 21.463657 V 4.859655 c 0,-0.950989 0.290991,-1.71412 0.880485,-2.3595 0.585476,-0.640666 1.288984,-0.944789 2.206155,-0.944789 z"
           id="path11717" />
        <path
           style="color:#000000;fill:#ffffff;fill-opacity:1;fill-rule:evenodd;-inkscape-stroke:none"
           d="m 24.550781,0.60351562 c -1.144792,0 -2.157019,0.43581748 -2.908203,1.25781248 -0.743502,0.8139883 -1.130859,1.8436638 -1.130859,2.9980469 v 5.365234 h 8.037109 V 4.859375 c 0,-1.148874 -0.36678,-2.174536 -1.083984,-2.9902344 C 26.73416,1.0382002 25.716935,0.60351563 24.550781,0.60351562 Z m 0,0.40039058 c 1.068604,0 1.959517,0.3832183 2.615235,1.1289063 0.652586,0.7422061 0.982421,1.6617547 0.982421,2.7265625 V 9.8242188 H 20.912109 V 4.859375 c 0,-1.0660287 0.347888,-1.9867834 1.025391,-2.7285156 0.67905,-0.7430615 1.568244,-1.1269531 2.613281,-1.1269532 z m 0,0.3515625 c -0.961382,0 -1.735481,0.3334724 -2.353515,1.0097657 -0.620337,0.679147 -0.933594,1.5023542 -0.933594,2.4941406 v 4.6132813 h 6.533203 V 4.859375 c 0,-0.9933864 -0.29768,-1.8172744 -0.894531,-2.4960937 C 26.310388,1.6901025 25.537731,1.3554688 24.550781,1.3554687 Z m 0,0.4003907 c 0.900783,0 1.526228,0.2745657 2.050781,0.8710937 0.536128,0.6097554 0.794922,1.3170962 0.794922,2.2324219 V 9.0722656 H 21.664062 V 4.859375 c 0,-0.9101897 0.269476,-1.6129977 0.828125,-2.2246094 0.552917,-0.6050374 1.185636,-0.8789062 2.058594,-0.8789062 z"
           id="path11719" />
      </g>
      <path
         id="rect3979-0"
         style="fill:#ffffff;fill-opacity:1;fill-rule:evenodd;stroke-width:0.848948"
         d="m 1.2216743,7.8797406 c -0.22623718,0 -0.40831002,0.1967675 -0.40831002,0.4412629 0,0.2444962 0.18207284,0.4412636 0.40831002,0.4412636 h 2.7224922 a 0.95051619,1.0272279 0 0 0 0.4755223,0.8897908 0.95051619,1.0272279 0 0 0 0.9502047,0 0.95051619,1.0272279 0 0 0 0.4755223,-0.8897908 H 8.567908 c 0.226238,0 0.4083108,-0.1967674 0.4083108,-0.4412636 0,-0.2444954 -0.1820728,-0.4412629 -0.4083108,-0.4412629 z" />
      <rect
         style="fill:#ffffff;fill-opacity:1;fill-rule:evenodd;stroke-width:0.26541"
         id="rect7166-3"
         width="1.1679916"
         height="1.8321673"
         x="4.3095822"
         y="0.008187769"
         ry="0.61871046" />
    </g>
  </g>
</svg>
