<?xml version="1.0" encoding="UTF-8" standalone="no"?>
<!-- Created with Inkscape (http://www.inkscape.org/) -->

<svg
   width="37"
   height="37"
   viewBox="0 0 9.7895831 9.7895833"
   version="1.1"
   id="svg325"
   inkscape:version="1.2.2 (732a01da63, 2022-12-09)"
   sodipodi:docname="v14_music.svg"
   xmlns:inkscape="http://www.inkscape.org/namespaces/inkscape"
   xmlns:sodipodi="http://sodipodi.sourceforge.net/DTD/sodipodi-0.dtd"
   xmlns="http://www.w3.org/2000/svg"
   xmlns:svg="http://www.w3.org/2000/svg">
  <sodipodi:namedview
     id="namedview327"
     pagecolor="#ffffff"
     bordercolor="#666666"
     borderopacity="1.0"
     inkscape:showpageshadow="2"
     inkscape:pageopacity="0.0"
     inkscape:pagecheckerboard="true"
     inkscape:deskcolor="#d1d1d1"
     inkscape:document-units="px"
     showgrid="false"
     inkscape:zoom="6.7277216"
     inkscape:cx="0.2229581"
     inkscape:cy="2.229581"
     inkscape:window-width="1920"
     inkscape:window-height="1009"
     inkscape:window-x="-8"
     inkscape:window-y="-8"
     inkscape:window-maximized="1"
     inkscape:current-layer="layer1" />
  <defs
     id="defs322" />
  <g
     inkscape:label="Layer 1"
     inkscape:groupmode="layer"
     id="layer1">
    <g
       id="g13122"
       inkscape:label="beatmap_library"
       transform="translate(-36.155995,-38.845772)"
       style="fill:#ffffff;fill-opacity:1">
      <path
         id="path7118"
         style="fill:#ffffff;fill-opacity:1;stroke-width:0.234241"
         d="m 39.274507,38.845772 c -0.242288,0 -0.453134,0.08775 -0.632897,0.263259 -0.179764,0.175505 -0.269737,0.387973 -0.269737,0.63758 v 5.744619 c 0,0.249609 0.08997,0.462532 0.269737,0.638037 0.179763,0.175506 0.390609,0.263259 0.632897,0.263259 h 5.767978 c 0.250104,0 0.463458,-0.08775 0.639316,-0.263259 0.175849,-0.175505 0.263778,-0.388428 0.263778,-0.638037 v -5.744619 c 0,-0.249607 -0.08793,-0.462075 -0.263778,-0.63758 -0.175858,-0.175506 -0.389212,-0.263259 -0.639316,-0.263259 z m 0,0.900839 h 5.767978 v 5.744619 h -5.767978 z m 3.246926,0.836852 c -0.120976,0 -0.221613,0.04109 -0.302257,0.123403 -0.08065,0.08232 -0.120896,0.18184 -0.120896,0.298908 v 2.069051 c -0.05134,-0.0439 -0.114462,-0.07814 -0.189594,-0.101921 -0.07515,-0.02378 -0.15887,-0.03565 -0.250503,-0.03565 -0.245611,0 -0.450546,0.08263 -0.615503,0.247262 -0.164949,0.164627 -0.247756,0.367334 -0.247756,0.608787 0,0.24145 0.08374,0.445529 0.250503,0.611985 0.166792,0.166456 0.370814,0.249547 0.612756,0.249547 0.245584,1e-6 0.450988,-0.08309 0.615946,-0.249547 0.164958,-0.166456 0.247304,-0.370534 0.247304,-0.611985 v -2.386697 h 0.593969 c 0.109968,0 0.205111,-0.04063 0.285765,-0.121117 0.08064,-0.08048 0.121356,-0.177273 0.121356,-0.290681 0,-0.117069 -0.04071,-0.21477 -0.121356,-0.293425 -0.08065,-0.07865 -0.175797,-0.117918 -0.285765,-0.117918 z m -4.817721,0.508693 -0.762042,0.08181 c -0.242291,0.039 -0.441778,0.158047 -0.598093,0.356954 -0.156319,0.198906 -0.214938,0.423164 -0.175857,0.672773 l 0.72678,5.662808 c 0.03908,0.249608 0.154728,0.446657 0.346216,0.590961 0.191487,0.144307 0.412101,0.200768 0.662207,0.169565 l 6.025809,-0.713449 c 0.226655,-0.0156 0.416373,-0.103354 0.568783,-0.263259 0.152409,-0.159906 0.228525,-0.353328 0.228525,-0.579535 h -1.336323 l -5.592124,0.678714 -0.738687,-5.662808 0.644806,-0.08181 z"
         inkscape:label="beatmap_library_icon" />
    </g>
  </g>
</svg>
