<?xml version="1.0" encoding="UTF-8" standalone="no"?>
<svg
   height="40"
   viewBox="0 -960 960 960"
   width="40"
   version="1.1"
   id="svg4"
   sodipodi:docname="icon-pause.svg"
   inkscape:version="1.2.2 (732a01da63, 2022-12-09)"
   xmlns:inkscape="http://www.inkscape.org/namespaces/inkscape"
   xmlns:sodipodi="http://sodipodi.sourceforge.net/DTD/sodipodi-0.dtd"
   xmlns="http://www.w3.org/2000/svg"
   xmlns:svg="http://www.w3.org/2000/svg">
  <defs
     id="defs8" />
  <sodipodi:namedview
     id="namedview6"
     pagecolor="#ffffff"
     bordercolor="#666666"
     borderopacity="1.0"
     inkscape:showpageshadow="2"
     inkscape:pageopacity="0.0"
     inkscape:pagecheckerboard="0"
     inkscape:deskcolor="#d1d1d1"
     showgrid="false"
     inkscape:zoom="8.34386"
     inkscape:cx="34.276702"
     inkscape:cy="30.321698"
     inkscape:window-width="1269"
     inkscape:window-height="455"
     inkscape:window-x="-44"
     inkscape:window-y="0"
     inkscape:window-maximized="0"
     inkscape:current-layer="svg4" />
  <g
     id="g5317"
     transform="matrix(164.16834,0,0,164.16834,-11923.367,-11490.822)"
     style="fill:#000000;fill-opacity:1">
    <g
       id="rect1835"
       style="fill:#000000;fill-opacity:1" />
    <g
       id="rect1837"
       style="fill:#000000;fill-opacity:1" />
  </g>
  <path
     style="color:#000000;fill:#000000;fill-rule:evenodd;stroke-width:164.168;-inkscape-stroke:none;fill-opacity:1"
     d="M 480,-960 C 215.50481,-960 8.3221438e-5,-744.49526 8.3221438e-5,-480.00007 8.3221438e-5,-215.50473 215.50481,0 480,0 744.49534,0 959.99992,-215.50473 959.99992,-480.00007 959.99992,-744.49527 744.49534,-960 480,-960 Z m 0,89.45894 c 216.29028,0 390.54115,174.25088 390.54115,390.54099 0,216.29028 -174.25087,390.541153 -390.54115,390.541153 -216.29011,0 -390.540999,-174.250873 -390.540999,-390.541153 0,-216.29011 174.250889,-390.54099 390.540999,-390.54099 z"
     id="circle1831-7" />
  <g
     id="path736">
    <path
       style="color:#000000;fill:#000000;fill-rule:evenodd;stroke-width:37.9222;-inkscape-stroke:none"
       d="m 377.2435,-645.26494 c 6.06478,0 10.94778,4.88301 10.94778,10.94779 v 308.63431 c 0,6.06478 -4.883,10.94778 -10.94778,10.94778 -6.0648,0 -10.94779,-4.883 -10.94779,-10.94778 v -308.63431 c 0,-6.06478 4.88299,-10.94779 10.94779,-10.94779 z"
       id="path8705" />
    <path
       style="color:#000000;fill:#000000;fill-rule:evenodd;-inkscape-stroke:none"
       d="m 377.24414,-664.22656 c -16.24234,0 -29.91016,13.66784 -29.91016,29.91015 v 308.63282 c 0,16.24231 13.66784,29.91015 29.91016,29.91015 16.24233,0 29.9082,-13.66782 29.9082,-29.91015 v -308.63282 c 0,-16.24233 -13.66585,-29.91015 -29.9082,-29.91015 z"
       id="path8707" />
  </g>
  <g
     id="path738">
    <path
       style="color:#000000;fill:#000000;fill-rule:evenodd;stroke-width:37.9229;-inkscape-stroke:none"
       d="m 582.75616,-645.26494 c 6.06478,0 10.94778,4.88301 10.94778,10.94779 v 308.63431 c 0,6.06478 -4.883,10.94778 -10.94778,10.94778 -6.06478,0 -10.94779,-4.883 -10.94779,-10.94778 v -308.63431 c 0,-6.06478 4.88301,-10.94779 10.94779,-10.94779 z"
       id="path8711" />
    <path
       style="color:#000000;fill:#000000;fill-rule:evenodd;-inkscape-stroke:none"
       d="m 582.75586,-664.22656 c -16.24254,0 -29.9082,13.66761 -29.9082,29.91015 v 308.63282 c 0,16.24254 13.66568,29.91015 29.9082,29.91015 16.24252,0 29.91016,-13.66764 29.91016,-29.91015 v -308.63282 c 0,-16.24251 -13.66762,-29.91015 -29.91016,-29.91015 z"
       id="path8713" />
  </g>
</svg>
