<?xml version="1.0" encoding="UTF-8" standalone="no"?>
<svg
   height="40"
   viewBox="0 -960 960 960"
   width="40"
   version="1.1"
   id="svg4"
   sodipodi:docname="icon-next.svg"
   inkscape:version="1.2.2 (732a01da63, 2022-12-09)"
   xmlns:inkscape="http://www.inkscape.org/namespaces/inkscape"
   xmlns:sodipodi="http://sodipodi.sourceforge.net/DTD/sodipodi-0.dtd"
   xmlns="http://www.w3.org/2000/svg"
   xmlns:svg="http://www.w3.org/2000/svg">
  <defs
     id="defs8" />
  <sodipodi:namedview
     id="namedview6"
     pagecolor="#ffffff"
     bordercolor="#666666"
     borderopacity="1.0"
     inkscape:showpageshadow="2"
     inkscape:pageopacity="0.0"
     inkscape:pagecheckerboard="0"
     inkscape:deskcolor="#d1d1d1"
     showgrid="false"
     inkscape:zoom="11.8"
     inkscape:cx="3.8983051"
     inkscape:cy="18.389831"
     inkscape:window-width="1920"
     inkscape:window-height="1009"
     inkscape:window-x="-8"
     inkscape:window-y="-8"
     inkscape:window-maximized="1"
     inkscape:current-layer="svg4" />
  <g
     id="g6834">
    <path
       style="color:#000000;fill:#000000;fill-rule:evenodd;stroke-width:164.223;-inkscape-stroke:none;fill-opacity:1"
       d="m 479.83968,-960 c 264.58355,0 480.1603,215.5768 480.1603,480.16039 C 959.99998,-215.25603 744.42323,0 479.83968,0 215.25614,0 1.8104477e-5,-215.25603 1.8104477e-5,-479.83961 1.8104477e-5,-744.4232 215.25614,-960 479.83968,-960 Z m 0,89.16799 c -216.36266,0 -390.671549,174.62984 -390.671549,390.9924 0,216.36241 174.308889,390.671515 390.671549,390.671515 216.36249,0 390.99219,-174.309105 390.99219,-390.671515 0,-216.36256 -174.6297,-390.9924 -390.99219,-390.9924 z"
       id="path1515-9" />
    <path
       id="path1517-6"
       style="fill:#000000;fill-rule:evenodd;stroke-width:48.0049;stroke-linecap:round;stroke-linejoin:round;fill-opacity:1"
       inkscape:transform-center-x="-0.48542711"
       inkscape:transform-center-y="-7.9781223e-06"
       d="m 541.34599,-460.67428 -219.39752,126.66912 a 22.315151,22.315151 0 0 1 -33.4728,-19.32552 v -253.33824 a 22.315151,22.315151 0 0 1 33.4728,-19.32553 l 219.39752,126.66913 a 22.315146,22.315146 0 0 1 0,38.65104 z" />
    <g
       id="path1519-2">
      <path
         style="color:#000000;fill:#000000;fill-rule:evenodd;stroke-width:37.9348;-inkscape-stroke:none"
         d="m 641.60526,-645.32011 c -6.06681,0 -10.95139,4.88464 -10.95139,10.95144 v 308.73746 c 0,6.06681 4.88458,10.95145 10.95139,10.95145 6.0668,0 10.95139,-4.88464 10.95139,-10.95145 v -308.73746 c 0,-6.0668 -4.88459,-10.95144 -10.95139,-10.95144 z"
         id="path7201" />
      <path
         style="color:#000000;fill:#000000;fill-rule:evenodd;-inkscape-stroke:none"
         d="m 641.60547,-664.28711 c -16.24775,0 -29.91992,13.67033 -29.91992,29.91797 v 308.73828 c 0,16.24763 13.67217,29.91797 29.91992,29.91797 16.24776,0 29.91797,-13.67032 29.91797,-29.91797 v -308.73828 c 0,-16.24766 -13.67021,-29.91797 -29.91797,-29.91797 z"
         id="path7203" />
    </g>
  </g>
</svg>
