<?xml version="1.0" encoding="UTF-8" standalone="no"?>
<!-- Created with Inkscape (http://www.inkscape.org/) -->

<svg
   width="37"
   height="37"
   viewBox="0 0 9.7895831 9.7895833"
   version="1.1"
   id="svg10867"
   inkscape:version="1.2.2 (732a01da63, 2022-12-09)"
   sodipodi:docname="v18_settings.svg"
   xmlns:inkscape="http://www.inkscape.org/namespaces/inkscape"
   xmlns:sodipodi="http://sodipodi.sourceforge.net/DTD/sodipodi-0.dtd"
   xmlns="http://www.w3.org/2000/svg"
   xmlns:svg="http://www.w3.org/2000/svg">
  <sodipodi:namedview
     id="namedview10869"
     pagecolor="#ffffff"
     bordercolor="#666666"
     borderopacity="1.0"
     inkscape:showpageshadow="2"
     inkscape:pageopacity="0"
     inkscape:pagecheckerboard="true"
     inkscape:deskcolor="#d1d1d1"
     inkscape:document-units="px"
     showgrid="false"
     inkscape:zoom="8"
     inkscape:cx="16.875"
     inkscape:cy="12.875"
     inkscape:window-width="1920"
     inkscape:window-height="1009"
     inkscape:window-x="-8"
     inkscape:window-y="-8"
     inkscape:window-maximized="1"
     inkscape:current-layer="layer1" />
  <defs
     id="defs10864" />
  <g
     inkscape:label="Layer 1"
     inkscape:groupmode="layer"
     id="layer1">
    <path
       id="path1241"
       style="fill:#fefeff;fill-opacity:1;stroke:none;stroke-width:0.496959;stroke-opacity:1"
       inkscape:label="settings_icon"
       d="M 4.49738,3.9165669e-5 C 4.398322,3.9165669e-5 4.3026544,0.03711026 4.2116099,0.11164497 4.1204048,0.18617969 4.0586494,0.27322615 4.025273,0.37262901 L 3.851073,1.3416182 C 3.5197539,1.4410157 3.2503686,1.5610014 3.0433098,1.7018213 2.836376,1.8426271 2.6415433,2.0043563 2.4593472,2.1865738 L 1.2919039,1.83877 C 1.175711,1.8056256 1.0641232,1.8097664 0.95649751,1.8512638 0.84905039,1.8927077 0.76175412,1.962709 0.69539392,2.0621137 L 0.34760074,2.8326523 C 0.29798242,2.9320499 0.28548816,3.043802 0.31029732,3.1680498 0.3347496,3.2922921 0.39704062,3.379335 0.49636647,3.4290356 L 1.3413795,3.9758022 c -0.066396,0.3313067 -0.099058,0.6377647 -0.099058,0.9193762 0,0.2816097 0.032841,0.5880659 0.099058,0.9193743 L 0.49636685,6.3359961 c -0.0990584,0.066271 -0.16081372,0.1615633 -0.18606916,0.2857808 -0.0242739,0.1242603 -0.005353,0.2277505 0.0621126,0.3105989 L 0.6953942,7.7029198 C 0.74501251,7.8188985 0.82818597,7.897683 0.94402184,7.9390947 1.0602147,7.9804317 1.175872,7.9844653 1.2918506,7.9510527 L 2.4598113,7.6027263 c 0.1822675,0.1822246 0.3769038,0.3439611 0.5839805,0.4847526 0.2069338,0.1408057 0.4758729,0.2608216 0.807192,0.3602085 l 0.1742,0.9689465 c 0.016064,0.099397 0.070144,0.1866101 0.1611707,0.2610929 0.091027,0.074211 0.2031321,0.1118565 0.3353885,0.1118565 h 4.997e-4 0.7948589 c 0.082817,0 0.1699163,-0.037641 0.2611036,-0.1118565 C 5.6694104,9.603244 5.7311656,9.5163063 5.7642744,9.4166339 L 5.9633372,8.4476873 C 6.2780751,8.3483433 6.5386968,8.2283042 6.7457735,8.0874789 6.9527073,7.9466731 7.1475222,7.785456 7.3297361,7.6032528 l 1.1927704,0.3478003 c 0.099415,0.033233 0.2028638,0.029003 0.3105968,-0.011958 C 8.9405508,7.8977581 9.0278472,7.8188328 9.0942075,7.7029202 L 9.4419827,6.9323762 C 9.4915973,6.8495603 9.5040972,6.746009 9.4792852,6.6217773 9.4548329,6.4975345 9.3925429,6.4022582 9.2932161,6.3359961 L 8.4482397,5.8145527 c 0.066397,-0.3313084 0.099058,-0.6377646 0.099058,-0.9193743 0,-0.2816115 -0.032842,-0.5880695 -0.099058,-0.9193762 L 9.2932161,3.4290356 C 9.3926321,3.3793281 9.4543868,3.2922814 9.4792852,3.1680498 9.5035619,3.0438074 9.4899914,2.9320373 9.4419827,2.8326523 L 9.0942075,2.0621137 C 9.0445882,1.9627162 8.9614155,1.8926792 8.8455618,1.8512638 8.7293691,1.8098199 8.6218502,1.8057149 8.5225601,1.83877 L 7.3297896,2.1865685 C 7.1475222,1.9877966 6.9528859,1.8219372 6.745827,1.6894167 6.538911,1.5568926 6.2781465,1.4409997 5.9633907,1.3416165 L 5.7643279,0.37262722 C 5.7309515,0.27322972 5.6733013,0.18617793 5.5906634,0.1116414 5.507847,0.03710665 5.4086458,-9.9609375e-8 5.292453,-9.9609375e-8 Z M 4.8947915,2.4449877 A 2.4499554,2.4499554 0 0 1 7.3448893,4.8950998 2.4499554,2.4499554 0 0 1 4.8947915,7.3447015 2.4499554,2.4499554 0 0 1 2.4452113,4.8950998 2.4499554,2.4499554 0 0 1 4.8947915,2.4449877 Z"
       inkscape:export-filename="..\settings.png"
       inkscape:export-xdpi="96"
       inkscape:export-ydpi="96" />
  </g>
</svg>
