<?xml version="1.0" encoding="UTF-8" standalone="no"?>
<!-- Created with Inkscape (http://www.inkscape.org/) -->

<svg
   width="37"
   height="37"
   viewBox="0 0 9.7895831 9.7895833"
   version="1.1"
   id="svg10867"
   inkscape:version="1.2.2 (732a01da63, 2022-12-09)"
   sodipodi:docname="icon-settings.svg"
   xmlns:inkscape="http://www.inkscape.org/namespaces/inkscape"
   xmlns:sodipodi="http://sodipodi.sourceforge.net/DTD/sodipodi-0.dtd"
   xmlns="http://www.w3.org/2000/svg"
   xmlns:svg="http://www.w3.org/2000/svg">
  <sodipodi:namedview
     id="namedview10869"
     pagecolor="#000000"
     bordercolor="#666666"
     borderopacity="1.0"
     inkscape:showpageshadow="2"
     inkscape:pageopacity="0"
     inkscape:pagecheckerboard="true"
     inkscape:deskcolor="#d1d1d1"
     inkscape:document-units="px"
     showgrid="false"
     inkscape:zoom="8"
     inkscape:cx="13.125"
     inkscape:cy="26"
     inkscape:window-width="1920"
     inkscape:window-height="1009"
     inkscape:window-x="-8"
     inkscape:window-y="-8"
     inkscape:window-maximized="1"
     inkscape:current-layer="layer1" />
  <defs
     id="defs10864" />
  <g
     inkscape:label="Layer 1"
     inkscape:groupmode="layer"
     id="layer1">
    <g
       id="path1531-8"
       style="fill:#ffffff;fill-opacity:1"
       transform="matrix(0.95199627,0,0,0.95199627,17.110826,-2.4915519)">
      <path
         style="color:#000000;fill:#ffffff;fill-opacity:1;stroke-width:0.494318;stroke-linecap:round;stroke-linejoin:round;-inkscape-stroke:none"
         d="m -13.210046,2.8633911 c -0.153179,0 -0.301481,0.061165 -0.421163,0.1591634 -0.116108,0.094892 -0.205683,0.2196356 -0.252181,0.3581177 l -0.0036,0.016536 -0.145728,0.8164876 c -0.261085,0.08922 -0.506833,0.1846678 -0.693498,0.3116089 -0.169487,0.1153348 -0.324893,0.2525101 -0.47749,0.394808 l -0.98857,-0.2950725 h -0.0036 c -0.153915,-0.04389 -0.319054,-0.040714 -0.467672,0.016536 -0.145469,0.056113 -0.273912,0.1604235 -0.361735,0.2919718 l -0.0098,0.012919 -0.334863,0.7431071 c -4.95e-4,0.001 4.95e-4,0.00241 0,0.00362 -0.07046,0.1430424 -0.08853,0.3089539 -0.05684,0.4676717 0.0339,0.172274 0.147555,0.3354577 0.305408,0.414445 l 0.659908,0.4278808 c -0.0443,0.2629269 -0.08268,0.5217408 -0.08268,0.756543 0,0.2335662 0.03583,0.4886256 0.07958,0.749825 l -0.680062,0.4211629 -0.0036,0.00362 c -0.143528,0.096014 -0.244225,0.2524132 -0.278536,0.4211629 -0.02901,0.1485786 -0.0072,0.3162413 0.07855,0.4480346 l 0.302824,0.719853 c 0.06953,0.162546 0.209283,0.295196 0.375171,0.3545 0.152621,0.05431 0.319036,0.06133 0.47439,0.01654 h 0.0031 l 0.992188,-0.295072 c 0.151519,0.14101 0.305982,0.277208 0.474389,0.391707 0.186482,0.126891 0.432461,0.222356 0.693498,0.311609 l 0.142627,0.799435 c 0.02618,0.153664 0.115271,0.293625 0.235128,0.391707 0.12991,0.105901 0.297524,0.159163 0.468188,0.159163 h 0.756026 c 0.150352,0 0.284875,-0.06675 0.398426,-0.159163 0.116063,-0.09477 0.205417,-0.219404 0.251664,-0.358635 l 0.0036,-0.01292 0.169499,-0.819588 c 0.249405,-0.08937 0.485456,-0.186286 0.669726,-0.311609 0.169326,-0.115199 0.325322,-0.25257 0.478007,-0.394808 l 1.0051071,0.295073 c 0.1470308,0.04915 0.3098255,0.04192 0.4542358,-0.01292 v -0.0036 c 0.1562533,-0.06012 0.2870036,-0.177351 0.3715536,-0.325044 l 0.00362,-0.0098 0.3250448,-0.7198525 c 0.00111,-0.00182 -0.00111,-0.00475 0,-0.00672 0.079751,-0.1371264 0.09412,-0.3022083 0.063045,-0.4578532 -0.033513,-0.1703459 -0.1349977,-0.3254071 -0.278536,-0.4211629 l -0.00362,-0.00362 -0.6800619,-0.4216797 c 0.043495,-0.2602683 0.079582,-0.5166521 0.079582,-0.7493082 0,-0.2348812 -0.038429,-0.4937117 -0.082682,-0.756543 l 0.6635253,-0.4278808 c 0.1582492,-0.079135 0.26749,-0.2438129 0.3017904,-0.4149618 0.030938,-0.1583931 0.012744,-0.320949 -0.053227,-0.4609538 l -0.3317627,-0.7363891 -0.0031,-0.00672 C -8.6998531,4.8070785 -8.837789,4.6968184 -8.9937662,4.6410603 -9.1399025,4.588936 -9.2989655,4.5786023 -9.4449014,4.6245239 l -1.0185426,0.2955892 c -0.153035,-0.1515048 -0.305405,-0.3012085 -0.47749,-0.4113444 -0.182867,-0.1171244 -0.41902,-0.208009 -0.666626,-0.2955892 l -0.169499,-0.8190715 -0.0036,-0.013436 c -0.04457,-0.132927 -0.12604,-0.2527101 -0.232027,-0.3482992 -0.119536,-0.1075851 -0.28047,-0.1689819 -0.441317,-0.1689819 z m 5.17e-4,0.4738729 -5.17e-4,5.167e-4 h 0.756543 c 0.06031,0 0.08801,0.00857 0.12609,0.042891 0.04999,0.045057 0.07719,0.091967 0.09612,0.1462443 4.97e-4,0.00144 0.003,0.00195 0.0036,0.00362 l 0.208773,1.0314616 0.132808,0.039791 c 0.284956,0.089974 0.516204,0.1941723 0.68988,0.3054077 0.178262,0.1141063 0.346388,0.2589381 0.507463,0.4345988 l 0.09974,0.1090373 1.2805424,-0.3746541 h 0.0031 c 0.040463,-0.013346 0.084261,-0.015826 0.1560628,0.00982 0.064515,0.023067 0.082907,0.043298 0.1028361,0.083199 l 0.3286621,0.7265706 v 0.0031 c 0.023082,0.047786 0.0314,0.096776 0.016536,0.1725992 -0.012436,0.059965 -0.020067,0.068186 -0.050126,0.083199 l -0.00982,0.0031 -0.9518799,0.6170166 0.033073,0.1560628 c 0.060465,0.3025409 0.0894,0.5797848 0.0894,0.8294067 0,0.2497176 -0.028799,0.5270128 -0.0894,0.8294068 l -0.033073,0.1591634 0.9420614,0.5839436 c 0.039431,0.027935 0.0576,0.053803 0.069763,0.1157553 0.015635,0.078573 0.00481,0.1103556 -0.00672,0.1297078 l -0.00672,0.00982 -0.3286621,0.7296709 c -0.039399,0.06696 -0.077233,0.09807 -0.1224732,0.116272 -0.060647,0.02305 -0.097366,0.02385 -0.1395263,0.0098 l -0.00362,-0.0031 -1.2738233,-0.371553 -0.09922,0.09922 c -0.1631,0.163104 -0.336304,0.308992 -0.520899,0.434599 -0.172472,0.117291 -0.400046,0.222765 -0.683162,0.312126 l -0.132808,0.04289 -0.20929,1.028361 -0.0031,0.0036 c -0.01655,0.04797 -0.0455,0.09103 -0.09974,0.135909 -0.05998,0.04883 -0.09252,0.05633 -0.09974,0.05633 h -0.756026 c -0.08106,0 -0.125661,-0.01777 -0.168982,-0.05323 -0.05217,-0.04269 -0.06433,-0.07227 -0.06976,-0.105936 l -0.192753,-1.068152 -0.13901,-0.03979 c -0.298854,-0.08964 -0.533476,-0.196044 -0.703316,-0.311609 -0.184412,-0.125405 -0.357486,-0.271229 -0.520898,-0.434599 l -0.09922,-0.09974 -1.244369,0.371553 c -0.06538,0.01882 -0.116981,0.0176 -0.185518,-0.0067 -0.05455,-0.0195 -0.07485,-0.03792 -0.09973,-0.09612 l -0.318327,-0.762744 -0.02326,-0.026872 c -0.01708,-0.020944 -0.02371,-0.027849 -0.0098,-0.099219 0.01289,-0.063392 0.03068,-0.088504 0.06976,-0.116272 l 0.0031,-0.00362 c 0.0014,-9.434e-4 0.0019,-0.00241 0.0036,-0.00362 l 0.935343,-0.5772257 -0.02946,-0.1591634 c -0.06047,-0.3025441 -0.08992,-0.5797892 -0.08992,-0.8294067 0,-0.2497207 0.02932,-0.5264992 0.08992,-0.82889 l 0.02946,-0.1560628 -0.948779,-0.6170166 -0.01292,-0.00362 c -0.03118,-0.015651 -0.03697,-0.018561 -0.04961,-0.082682 v -0.00362 c -0.01529,-0.076628 -0.0099,-0.1203936 0.01292,-0.1658813 l 0.0036,-0.00362 0.315226,-0.7033162 c 0.03848,-0.05763 0.07691,-0.089861 0.135909,-0.1126547 0.05511,-0.021231 0.100754,-0.024636 0.165882,-0.00672 l 1.247469,0.3715536 0.09922,-0.099219 c 0.163265,-0.1632824 0.336518,-0.3060402 0.520899,-0.4314982 0.169848,-0.1155471 0.404392,-0.2219299 0.703316,-0.3116089 l 0.13901,-0.043408 0.189135,-1.0381795 c 0.01726,-0.047241 0.04221,-0.088343 0.09663,-0.1328084 0.05358,-0.043875 0.08712,-0.053227 0.122474,-0.053227 z m 0.377754,2.6365315 c -0.983392,1.532e-4 -1.784451,0.8009966 -1.784387,1.7843872 1.41e-4,0.9832466 0.801141,1.7842355 1.784387,1.7843872 0.983394,5.91e-5 1.784246,-0.800992 1.784387,-1.7843872 6.2e-5,-0.9835364 -0.800852,-1.7844419 -1.784387,-1.7843872 z m 0,0.3276286 c 0.806144,-4.7e-5 1.45681,0.6506134 1.456759,1.4567586 -1.16e-4,0.8060254 -0.650734,1.4547385 -1.456759,1.4546915 -0.805905,-1.213e-4 -1.454575,-0.6487859 -1.454691,-1.4546915 -4.9e-5,-0.8060223 0.648668,-1.4566373 1.454691,-1.4567586 z"
         id="path4958" />
      <path
         style="color:#000000;fill:#ffffff;fill-opacity:1;stroke-linecap:round;stroke-linejoin:round;-inkscape-stroke:none"
         d="m -13.210938,2.6171875 c -0.218972,0 -0.418058,0.085376 -0.576171,0.2148438 -0.150061,0.12264 -0.267349,0.2838789 -0.330079,0.4707031 a 0.24718372,0.24718372 0 0 0 -0.0078,0.025391 l -0.0039,0.015625 a 0.24718372,0.24718372 0 0 0 -0.002,0.00977 l -0.123047,0.6894531 c -0.215054,0.077763 -0.430373,0.1542854 -0.611328,0.2773438 -0.145076,0.098723 -0.269957,0.2138022 -0.394532,0.3261719 l -0.861328,-0.2578125 a 0.24718372,0.24718372 0 0 0 -0.0078,-0.00195 h -0.0039 c -0.200728,-0.056424 -0.417344,-0.054299 -0.619141,0.023437 -0.195849,0.075546 -0.362404,0.2127977 -0.478516,0.3867188 l 0.0078,-0.013672 -0.0098,0.013672 a 0.24718372,0.24718372 0 0 0 -0.02734,0.048828 l -0.332031,0.734375 c -3e-6,6.1e-6 1.06e-4,0.00357 0,0.00391 -0.09653,0.195973 -0.119823,0.416156 -0.07813,0.625 0.0484,0.2459465 0.200278,0.4691884 0.4375,0.5878906 l 0.509766,0.3320312 c -0.03303,0.2114744 -0.06836,0.4236394 -0.06836,0.6308594 0,0.2032421 0.03273,0.4126811 0.06445,0.6210938 l -0.548829,0.3398437 a 0.24718372,0.24718372 0 0 0 -0.0098,0.00781 c -0.202222,0.1352774 -0.337583,0.3460682 -0.384766,0.578125 a 0.24718372,0.24718372 0 0 0 0,0.00195 c -0.04019,0.205805 -0.01225,0.432888 0.115235,0.6289062 l -0.02148,-0.039063 0.302735,0.7207036 a 0.24718372,0.24718372 0 0 0 0,0.002 c 0.09751,0.227946 0.285067,0.406415 0.519531,0.490234 0.197264,0.0702 0.414334,0.07874 0.61914,0.02149 a 0.24718372,0.24718372 0 0 0 0.01172,-0.002 l 0.865234,-0.257812 c 0.12401,0.111718 0.247994,0.223963 0.392579,0.322266 0.181435,0.123457 0.397584,0.201372 0.613281,0.279296 l 0.11914,0.671875 c 0.03795,0.219924 0.160114,0.40637 0.322266,0.539063 0.179152,0.146043 0.40096,0.214844 0.623047,0.214844 h 0.755859 c 0.223499,0 0.412201,-0.09888 0.554688,-0.214844 0.150155,-0.122608 0.267719,-0.284918 0.330078,-0.472656 a 0.24718372,0.24718372 0 0 0 0.0039,-0.01172 l 0.0039,-0.01172 a 0.24718372,0.24718372 0 0 0 0.0039,-0.01758 l 0.144531,-0.699219 c 0.207268,-0.07872 0.415056,-0.157141 0.591797,-0.277343 0.14481,-0.09852 0.269804,-0.211883 0.394531,-0.324219 L -9.5332031,11.125 c 0.2059681,0.06885 0.4257903,0.05854 0.6210937,-0.01563 a 0.24718372,0.24718372 0 0 0 0.00586,-0.0098 c 0.2099321,-0.083 0.3824618,-0.236064 0.4921875,-0.427734 a 0.24718372,0.24718372 0 0 0 0.017578,-0.03711 v -0.002 l 0.3222656,-0.710938 -0.015625,0.027344 c 1.86e-5,-3.05e-5 0.00289,-0.00908 0.00391,-0.011719 0.1162509,-0.1998857 0.1318428,-0.42648 0.091797,-0.6289062 C -8.0404083,9.0733061 -8.1776326,8.8626974 -8.378902,8.7284286 a 0.24718372,0.24718372 0 0 0 -0.00977,-0.00781 L -8.9375,8.3808594 c 0.031775,-0.2086865 0.064453,-0.4178505 0.064453,-0.6210938 0,-0.2073012 -0.035346,-0.4194482 -0.068359,-0.6308594 L -8.4277344,6.796875 c 0.2402342,-0.1201329 0.3854275,-0.3475549 0.4335938,-0.5878906 a 0.24718372,0.24718372 0 0 0 0,-0.00195 c 0.040532,-0.2075118 0.01768,-0.4223957 -0.072266,-0.6132812 L -8.3964844,4.8613281 a 0.24718372,0.24718372 0 0 0 -0.00195,-0.00195 l -0.00195,-0.00586 a 0.24718372,0.24718372 0 0 0 -0.00391,-0.00781 C -8.51156,4.6309922 -8.7004185,4.4831793 -8.9101563,4.4082031 -9.1000086,4.3404861 -9.3144186,4.3241291 -9.5195313,4.3886719 L -10.404297,4.6464844 C -10.528159,4.5261266 -10.651313,4.4014425 -10.808594,4.3007812 -10.983418,4.1888085 -11.18764,4.1158103 -11.390625,4.0410156 L -11.535156,3.34375 a 0.24718372,0.24718372 0 0 0 -0.0039,-0.013672 l -0.0039,-0.013672 a 0.24718372,0.24718372 0 0 0 -0.0039,-0.013672 c -0.0592,-0.1765675 -0.165315,-0.3309485 -0.300781,-0.453125 -0.166771,-0.1500978 -0.381727,-0.2324219 -0.605469,-0.2324219 z m 4.8320317,6.1113281 0.037109,0.03125 -0.00195,-0.00391 a 0.24718372,0.24718372 0 0 0 -0.035156,-0.027344 z m -8.9062497,0 a 0.24718372,0.24718372 0 0 0 -0.03516,0.027344 l -0.002,0.00391 z m 5.232422,-5.3691406 c 0.0089,0.00953 0.01764,0.019613 0.01758,0.019531 -7.6e-5,-9.97e-5 0.01263,0.022753 0.02344,0.042969 -0.01554,-0.023563 -0.03246,-0.049653 -0.04101,-0.0625 z m -1.125,0.2246094 h 0.697265 c 0.0041,0.00586 0.0105,0.00874 0.01563,0.023437 l 0.203125,1.0039062 a 0.24718372,0.24718372 0 0 0 0.171875,0.1875 l 0.128906,0.039063 c 0.269321,0.085037 0.48206,0.1820412 0.63086,0.2773438 0.157711,0.1009517 0.310073,0.2321358 0.458984,0.3945312 l 0.09961,0.1074219 a 0.24718372,0.24718372 0 0 0 0.251953,0.070312 l 1.2460935,-0.3632813 h -0.03125 a 0.24718372,0.24718372 0 0 0 0.052734,-0.00977 l 0.2871093,0.6347656 v -0.050781 a 0.24718372,0.24718372 0 0 0 0.019531,0.083984 L -9.847652,6.5664011 a 0.24718372,0.24718372 0 0 0 -0.1074218,0.2597657 l 0.033203,0.15625 c 0.057158,0.2872465 0.083984,0.5479614 0.083984,0.7773437 0,0.2307146 -0.026139,0.4926074 -0.083984,0.78125 l -0.033203,0.1582032 A 0.24718372,0.24718372 0 0 0 -9.84375,8.9589844 l 0.8925781,0.5527344 -0.3085937,0.6855472 0.00391,-0.0059 c -0.012353,0.02099 -0.00523,0.01082 -0.00195,0.0078 l -0.00195,-0.002 -1.2539064,-0.3652347 a 0.24718372,0.24718372 0 0 0 -0.244141,0.0625 l -0.09961,0.099609 c -0.153342,0.1533457 -0.31392,0.2883117 -0.484375,0.4042977 -0.145847,0.09918 -0.353006,0.197248 -0.619141,0.28125 a 0.24718372,0.24718372 0 0 0 -0.002,0 l -0.132812,0.04297 a 0.24718372,0.24718372 0 0 0 -0.166016,0.185547 l -0.195312,0.966797 0.03711,-0.04492 a 0.24718372,0.24718372 0 0 0 -0.04492,0.08008 c -0.0023,0.0065 -7.83e-4,0.0061 -0.02148,0.02344 -0.0018,0.0015 -3.34e-4,6.93e-4 -0.002,0.002 H -13.1875 c -0.0073,0 0.0013,-4.53e-4 -0.002,0 l -0.1855,-1.025346 a 0.24718372,0.24718372 0 0 0 -0.175781,-0.193359 l -0.134766,-0.03906 c -0.281397,-0.0844 -0.496068,-0.183593 -0.636719,-0.279296 -0.1702,-0.115741 -0.330665,-0.250627 -0.484375,-0.4042974 l -0.09961,-0.099609 a 0.24718372,0.24718372 0 0 0 -0.246094,-0.0625 l -1.240234,0.3710934 c -0.0049,0.0014 -0.0036,-9.93e-4 -0.0059,0 l -0.294922,-0.7050778 0.873046,-0.5390625 a 0.24718372,0.24718372 0 0 0 0.113282,-0.2558594 l -0.0293,-0.1582031 a 0.24718372,0.24718372 0 0 0 0,-0.00391 c -0.05781,-0.2892088 -0.08594,-0.5510707 -0.08594,-0.78125 0,-0.2303763 0.02803,-0.4922915 0.08594,-0.78125 a 0.24718372,0.24718372 0 0 0 0,-0.00195 l 0.0293,-0.15625 a 0.24718372,0.24718372 0 0 0 -0.107422,-0.2519531 l -0.898438,-0.5839844 0.296875,-0.6601563 c 4.02e-4,-0.00197 -3.7e-5,-0.00718 0.01172,-0.011719 0.02066,-0.00796 -0.01721,-0.00601 0.01172,0.00195 l 1.242187,0.3691406 a 0.24718372,0.24718372 0 0 0 0.244141,-0.0625 l 0.09961,-0.097656 c 0.152379,-0.152395 0.314508,-0.2854325 0.486328,-0.4023438 0.14069,-0.09571 0.353289,-0.1948519 0.634766,-0.2792968 a 0.24718372,0.24718372 0 0 0 0.002,-0.00195 l 0.138672,-0.042969 A 0.24718372,0.24718372 0 0 0 -13.375,4.6054687 l 0.183594,-1.0058593 c 5.71e-4,-0.00353 0.0014,-0.00592 0.01367,-0.015625 z m -0.642579,0.7089843 -0.01367,0.076172 c -0.03523,0.010629 -0.05221,0.027961 -0.08594,0.039063 a 0.24718372,0.24718372 0 0 0 0.09961,-0.115235 z m 2,0.00391 a 0.24718372,0.24718372 0 0 0 0.09375,0.1074219 c -0.03105,-0.010597 -0.04785,-0.026882 -0.08008,-0.037109 z m 1.240235,0.8125 a 0.24718372,0.24718372 0 0 0 0.146484,0.039063 l -0.07617,0.021484 c -0.02199,-0.023908 -0.04795,-0.037591 -0.07031,-0.060547 z m -4.501953,0.00195 c -0.02177,0.020698 -0.04693,0.035306 -0.06836,0.056641 l -0.07617,-0.023437 a 0.24718372,0.24718372 0 0 0 0.144532,-0.033203 z m 5.8535154,0.1992188 c -0.00127,4.202e-4 -0.040975,-0.00543 -0.00391,0.00781 0.00557,0.00199 -0.00658,-0.00453 -0.00586,-0.00586 a 0.24718372,0.24718372 0 0 0 0.00977,-0.00195 z M -17.601562,5.609375 c -0.0065,0.020584 -0.01366,0.042888 -0.01367,0.042969 -2.2e-5,1.366e-4 -0.002,0.050636 -0.002,0.050781 5.81e-4,-0.00304 0.013,-0.078171 0.01563,-0.09375 z m 0.478515,0.070312 c -4.6e-5,8.368e-4 2.36e-4,0.00712 0,0.011719 l -0.002,0.00586 c 7.99e-4,-0.00471 0.002,-0.017526 0.002,-0.017578 z m 4.291016,0.046875 c -1.117556,1.741e-4 -2.031323,0.9136298 -2.03125,2.03125 1.6e-4,1.117458 0.913796,2.0310776 2.03125,2.03125 1.117621,6.72e-5 2.03109,-0.9136885 2.03125,-2.03125 7e-5,-1.1177215 -0.913532,-2.0313122 -2.03125,-2.03125 z M -17.125,5.730472 a 0.24718372,0.24718372 0 0 0 -0.0078,0.00977 c 3.17e-4,-0.00185 -3.22e-4,-0.00203 0,-0.00391 z m 4.292969,0.8183594 c 0.673143,-3.92e-5 1.209027,0.5358417 1.208984,1.2089844 -9.7e-5,0.6730405 -0.535582,1.2070705 -1.208984,1.2070313 -0.673301,-1.014e-4 -1.206935,-0.5337321 -1.207032,-1.2070313 -4e-5,-0.6733983 0.533993,-1.2088831 1.207032,-1.2089844 z m 3.4765622,0.2890625 a 0.24718372,0.24718372 0 0 0 -0.070312,0.1601563 c -0.00719,-0.040717 -0.00342,-0.073716 -0.011719,-0.1152344 l 0.00195,0.00781 z m -6.9003902,0.033203 0.0332,0.021484 c -0.0027,0.013415 -0.0033,0.023779 -0.0059,0.037109 a 0.24718372,0.24718372 0 0 0 -0.02734,-0.058594 z m 6.8320309,1.6406251 a 0.24718372,0.24718372 0 0 0 0.078125,0.1738281 l -0.089844,-0.056641 c 0.00834,-0.042054 0.00452,-0.075955 0.011719,-0.1171871 z m -6.8046879,0.064453 c 0.0034,0.01805 3.03e-4,0.032578 0.0039,0.050781 l -0.04297,0.027344 a 0.24718372,0.24718372 0 0 0 0.03906,-0.078125 z m -0.517578,0.953125 -0.0039,0.00391 -0.0059,0.00195 z m 8.6875002,0.2324219 c -7.59e-5,-3.3e-4 0.00394,0.039642 0.00391,0.039063 -1.73e-5,-2.9e-4 -0.002,0.056913 -0.00195,0.056641 6.1e-4,-0.0097 0.00392,-0.054434 0.00391,-0.054687 -3.47e-5,-5.612e-4 -0.00578,-0.040686 -0.00586,-0.041016 z m 0.00195,0.095703 c 3.81e-5,-2.173e-4 -0.014353,0.042486 -0.021484,0.0625 0.00955,-0.024966 0.021453,-0.056471 0.021484,-0.056641 4.6e-6,-2.49e-5 -6.51e-5,-0.00482 0,-0.00586 z m -1.1757813,0.3496091 c 0.00409,-2.7e-4 0.00557,0.0019 0.00586,0.002 l 0.078125,0.04492 a 0.24718372,0.24718372 0 0 0 -0.083984,-0.04687 z m -5.9199219,0.140625 c 0.02223,0.02217 0.04964,0.037 0.07227,0.05859 a 0.24718372,0.24718372 0 0 0 -0.154297,-0.03516 z m 4.640625,0 0.07617,0.02149 a 0.24718372,0.24718372 0 0 0 -0.144531,0.03516 c 0.02159,-0.02065 0.04714,-0.03547 0.06836,-0.05664 z m -1.214844,0.763672 a 0.24718372,0.24718372 0 0 0 -0.0918,0.105469 l 0.01367,-0.06836 -0.0059,0.002 c 0.03374,-0.01067 0.05155,-0.02792 0.08398,-0.03906 z m -2.1875,0.002 c 0.03165,0.01036 0.04712,0.02717 0.08008,0.03711 l 0.01367,0.07226 a 0.24718372,0.24718372 0 0 0 -0.09375,-0.109375 z m 1.916016,0.957032 -0.04297,0.07617 a 0.24718372,0.24718372 0 0 0 0.02539,-0.05078 c 0.0038,-0.0091 0.01445,-0.01632 0.01758,-0.02539 z"
         id="path4960" />
    </g>
  </g>
</svg>
