<?xml version="1.0" encoding="UTF-8" standalone="no"?>
<!-- Created with Inkscape (http://www.inkscape.org/) -->

<svg
   width="37"
   height="37"
   viewBox="0 0 9.7895831 9.7895833"
   version="1.1"
   id="svg10867"
   inkscape:version="1.2.2 (732a01da63, 2022-12-09)"
   sodipodi:docname="back-button.svg"
   xmlns:inkscape="http://www.inkscape.org/namespaces/inkscape"
   xmlns:sodipodi="http://sodipodi.sourceforge.net/DTD/sodipodi-0.dtd"
   xmlns="http://www.w3.org/2000/svg"
   xmlns:svg="http://www.w3.org/2000/svg">
  <sodipodi:namedview
     id="namedview10869"
     pagecolor="#000000"
     bordercolor="#666666"
     borderopacity="1.0"
     inkscape:showpageshadow="2"
     inkscape:pageopacity="0"
     inkscape:pagecheckerboard="true"
     inkscape:deskcolor="#d1d1d1"
     inkscape:document-units="px"
     showgrid="false"
     inkscape:zoom="2.3786088"
     inkscape:cx="-176.99422"
     inkscape:cy="40.359727"
     inkscape:window-width="1920"
     inkscape:window-height="1009"
     inkscape:window-x="-8"
     inkscape:window-y="-8"
     inkscape:window-maximized="1"
     inkscape:current-layer="layer1" />
  <defs
     id="defs10864" />
  <g
     inkscape:label="Layer 1"
     inkscape:groupmode="layer"
     id="layer1">
    <path
       style="fill:#ffffff;fill-opacity:1;stroke-width:0.228035"
       d="M 4.0993923,5.343135 5.0265512,6.2702938 Q 5.1555445,6.3992872 5.1515227,6.5806823 5.1473508,6.7620886 5.0185075,6.8910792 4.889514,7.0200726 4.7121366,7.0200726 q -0.1773774,0 -0.3063693,-0.1289934 L 2.7207552,5.2060658 Q 2.5917619,5.0770723 2.5877399,4.8956675 2.5835649,4.7142599 2.7126974,4.5852637 L 4.3977053,2.9002557 Q 4.518641,2.7793201 4.7040789,2.7793201 q 0.1854282,1.26e-5 0.322482,0.1370651 0.1289935,0.1289933 0.1249715,0.3103899 -0.00417,0.1814076 -0.1249715,0.3023419 l -0.9352235,0.9352236 2.676669,2.8e-6 q 0.1854365,-0.00821 0.3063666,0.1209217 0.120713,0.1292021 0.1209356,0.3063722 -1.24e-5,0.19349 -0.1249714,0.3184518 -0.1249576,0.1249714 -0.3103871,0.1169136 z"
       id="path529" />
    <circle
       style="fill:none;fill-rule:evenodd;stroke:#ffffff;stroke-width:0.909825;stroke-dasharray:none;stroke-opacity:1"
       id="path2769"
       cx="4.8947916"
       cy="4.8947916"
       r="4.4398794" />
  </g>
</svg>
