<?xml version="1.0" encoding="UTF-8" standalone="no"?>
<svg
   height="40"
   viewBox="0 -960 960 960"
   width="40"
   version="1.1"
   id="svg4"
   sodipodi:docname="icon-pause.svg"
   inkscape:version="1.2.2 (732a01da63, 2022-12-09)"
   xmlns:inkscape="http://www.inkscape.org/namespaces/inkscape"
   xmlns:sodipodi="http://sodipodi.sourceforge.net/DTD/sodipodi-0.dtd"
   xmlns="http://www.w3.org/2000/svg"
   xmlns:svg="http://www.w3.org/2000/svg">
  <defs
     id="defs8" />
  <sodipodi:namedview
     id="namedview6"
     pagecolor="#ffffff"
     bordercolor="#666666"
     borderopacity="1.0"
     inkscape:showpageshadow="2"
     inkscape:pageopacity="0.0"
     inkscape:pagecheckerboard="0"
     inkscape:deskcolor="#d1d1d1"
     showgrid="false"
     inkscape:zoom="5.9"
     inkscape:cx="-20.762712"
     inkscape:cy="28.983051"
     inkscape:window-width="1920"
     inkscape:window-height="1009"
     inkscape:window-x="-8"
     inkscape:window-y="-8"
     inkscape:window-maximized="1"
     inkscape:current-layer="svg4" />
  <g
     id="g5317"
     transform="matrix(164.16834,0,0,164.16834,-11923.367,-11490.822)"
     style="fill:#000000;fill-opacity:1">
    <path
       style="color:#000000;fill:#000000;fill-rule:evenodd;-inkscape-stroke:none;fill-opacity:1"
       d="m 75.552734,64.146484 c -1.611122,0 -2.923828,1.312706 -2.923828,2.923828 0,1.611123 1.312706,2.923829 2.923828,2.923829 1.611123,0 2.923828,-1.312706 2.923828,-2.923829 0,-1.611122 -1.312705,-2.923828 -2.923828,-2.923828 z m 0,0.544922 c 1.317491,0 2.378907,1.061416 2.378907,2.378906 0,1.317491 -1.061416,2.378907 -2.378907,2.378907 -1.31749,0 -2.378906,-1.061416 -2.378906,-2.378907 0,-1.31749 1.061416,-2.378906 2.378906,-2.378906 z"
       id="circle1831" />
    <g
       id="rect1835"
       style="fill:#000000;fill-opacity:1">
      <path
         style="color:#000000;fill:#000000;fill-opacity:1;fill-rule:evenodd;stroke-width:0.275;-inkscape-stroke:none"
         d="m 74.93227,66.050705 h 0.07359 c 0.03741,0 0.06753,0.03012 0.06753,0.06753 v 1.903826 c 0,0.03741 -0.03012,0.06753 -0.06753,0.06753 h -0.07359 c -0.03741,0 -0.06753,-0.03012 -0.06753,-0.06753 v -1.903826 c 0,-0.03741 0.03012,-0.06753 0.06753,-0.06753 z"
         id="path1537" />
      <path
         style="color:#000000;fill:#000000;fill-opacity:1;fill-rule:evenodd;-inkscape-stroke:none"
         d="m 74.931641,65.914062 c -0.111209,10e-7 -0.205079,0.09387 -0.205079,0.205079 v 1.902343 c 10e-7,0.111209 0.09387,0.205078 0.205079,0.205078 h 0.07422 c 0.111209,0 0.205078,-0.09387 0.205078,-0.205078 v -1.902343 c 0,-0.111209 -0.09387,-0.205079 -0.205078,-0.205079 z"
         id="path1539" />
    </g>
    <g
       id="rect1837"
       style="fill:#000000;fill-opacity:1">
      <path
         style="color:#000000;fill:#000000;fill-opacity:1;fill-rule:evenodd;stroke-width:0.275;-inkscape-stroke:none"
         d="m 76.0993,66.050705 h 0.07359 c 0.03741,0 0.06753,0.03012 0.06753,0.06753 v 1.903826 c 0,0.03741 -0.03012,0.06753 -0.06753,0.06753 H 76.0993 c -0.03741,0 -0.06753,-0.03012 -0.06753,-0.06753 v -1.903826 c 0,-0.03741 0.03012,-0.06753 0.06753,-0.06753 z"
         id="path1531" />
      <path
         style="color:#000000;fill:#000000;fill-opacity:1;fill-rule:evenodd;-inkscape-stroke:none"
         d="m 76.099609,65.914062 c -0.111209,10e-7 -0.205078,0.09387 -0.205078,0.205079 v 1.902343 c 0,0.111209 0.09387,0.205078 0.205078,0.205078 h 0.07422 c 0.111209,0 0.203125,-0.09387 0.203125,-0.205078 v -1.902343 c 0,-0.111209 -0.09192,-0.205079 -0.203125,-0.205079 z"
         id="path1533" />
    </g>
  </g>
</svg>
