<?xml version="1.0" encoding="UTF-8" standalone="no"?>
<svg
   height="40"
   viewBox="0 -960 960 960"
   width="40"
   version="1.1"
   id="svg4"
   sodipodi:docname="icon-next.svg"
   inkscape:version="1.2.2 (732a01da63, 2022-12-09)"
   xmlns:inkscape="http://www.inkscape.org/namespaces/inkscape"
   xmlns:sodipodi="http://sodipodi.sourceforge.net/DTD/sodipodi-0.dtd"
   xmlns="http://www.w3.org/2000/svg"
   xmlns:svg="http://www.w3.org/2000/svg">
  <defs
     id="defs8" />
  <sodipodi:namedview
     id="namedview6"
     pagecolor="#ffffff"
     bordercolor="#666666"
     borderopacity="1.0"
     inkscape:showpageshadow="2"
     inkscape:pageopacity="0.0"
     inkscape:pagecheckerboard="0"
     inkscape:deskcolor="#d1d1d1"
     showgrid="false"
     inkscape:zoom="11.8"
     inkscape:cx="7.8389831"
     inkscape:cy="16.271186"
     inkscape:window-width="1920"
     inkscape:window-height="1009"
     inkscape:window-x="-8"
     inkscape:window-y="-8"
     inkscape:window-maximized="1"
     inkscape:current-layer="svg4" />
  <path
     style="color:#000000;fill:#000000;fill-rule:evenodd;stroke-width:164.223;-inkscape-stroke:none;fill-opacity:1"
     d="m 479.83924,-959.99968 c 264.58359,0 480.16036,215.57676 480.16036,480.16036 C 959.9996,-215.25573 744.42283,3.1171986e-4 479.83924,3.1171986e-4 215.25564,3.1171986e-4 -3.9627706e-4,-215.25573 -3.9627706e-4,-479.83932 -3.9627706e-4,-744.42292 215.25564,-959.99968 479.83924,-959.99968 Z m 0,89.16793 c -216.36258,0 -390.671535,174.62985 -390.671535,390.99243 0,216.36241 174.308955,390.67153 390.671535,390.67153 216.36257,0 390.99226,-174.30912 390.99226,-390.67153 0,-216.36258 -174.62969,-390.99243 -390.99226,-390.99243 z"
     id="path1515" />
  <path
     id="path1517"
     style="fill:#000000;fill-rule:evenodd;stroke-width:57.1497;stroke-linecap:round;stroke-linejoin:round;fill-opacity:1"
     inkscape:transform-center-x="-0.26812382"
     inkscape:transform-center-y="-2.1149433e-06"
     d="m 552.95633,-456.98652 -261.19239,150.79943 a 26.566159,26.566159 0 0 1 -39.84925,-23.00701 v -301.59885 a 26.566159,26.566159 0 0 1 39.84925,-23.00701 l 261.19239,150.79942 a 26.566152,26.566152 0 0 1 0,46.01402 z" />
  <g
     id="path1519"
     style="fill:#000000;fill-opacity:1">
    <path
       style="color:#000000;fill:#000000;fill-rule:evenodd;stroke-width:45.1614;-inkscape-stroke:none;fill-opacity:1"
       d="m 672.31489,-676.80714 c -7.22253,0 -13.03768,5.81515 -13.03768,13.03768 v 367.55154 c 0,7.22253 5.81515,13.03767 13.03768,13.03767 7.22254,0 13.03768,-5.81514 13.03768,-13.03767 v -367.55154 c 0,-7.22253 -5.81514,-13.03768 -13.03768,-13.03768 z"
       id="path295" />
    <path
       style="color:#000000;fill:#000000;fill-rule:evenodd;-inkscape-stroke:none;fill-opacity:1"
       d="m 672.31445,-699.38867 c -19.34293,0 -35.61718,16.27621 -35.61718,35.61914 v 367.55078 c 0,19.34293 16.27427,35.61914 35.61718,35.61914 19.34291,0 35.61914,-16.27623 35.61914,-35.61914 v -367.55078 c 0,-19.34291 -16.27621,-35.61914 -35.61914,-35.61914 z"
       id="path297" />
  </g>
</svg>
