<svg xmlns="http://www.w3.org/2000/svg" height="40" viewBox="0 -960 960 960" width="40"><path d="M702.383-246q-13.383 0-22.549-9.25-9.167-9.25-9.167-22.583V-682.5q0-13 9.284-22.25 9.283-9.25 22.666-9.25 13.05 0 22.216 9.25Q734-695.5 734-682.5v404.667q0 13.333-9.283 22.583-9.284 9.25-22.334 9.25Zm-427.217-33.666q-15.833 10.833-32.5 1.833Q226-286.833 226-305.5v-349.334q0-18.333 16.666-27.333 16.667-9 32.5 1.833l254.167 174.167q13.5 9.908 13.5 26.204t-13.5 25.796L275.166-279.666ZM289.333-480Zm0 114.001L455.334-480 289.333-594.001v228.002Z"/></svg>