<?xml version="1.0" encoding="UTF-8" standalone="no"?>
<svg
   height="40"
   viewBox="0 -960 960 960"
   width="40"
   version="1.1"
   id="svg4"
   sodipodi:docname="icon-previous.svg"
   inkscape:version="1.2.2 (732a01da63, 2022-12-09)"
   xmlns:inkscape="http://www.inkscape.org/namespaces/inkscape"
   xmlns:sodipodi="http://sodipodi.sourceforge.net/DTD/sodipodi-0.dtd"
   xmlns="http://www.w3.org/2000/svg"
   xmlns:svg="http://www.w3.org/2000/svg">
  <defs
     id="defs8" />
  <sodipodi:namedview
     id="namedview6"
     pagecolor="#ffffff"
     bordercolor="#666666"
     borderopacity="1.0"
     inkscape:showpageshadow="2"
     inkscape:pageopacity="0.0"
     inkscape:pagecheckerboard="0"
     inkscape:deskcolor="#d1d1d1"
     showgrid="false"
     inkscape:zoom="2.95"
     inkscape:cx="-45.423729"
     inkscape:cy="57.627119"
     inkscape:window-width="1920"
     inkscape:window-height="1009"
     inkscape:window-x="-8"
     inkscape:window-y="-8"
     inkscape:window-maximized="1"
     inkscape:current-layer="svg4" />
  <g
     id="g3671"
     style="fill:#000000;fill-opacity:1"
     transform="matrix(1.8104468,0,0,1.8104468,-1764.4361,1716.2897)">
    <path
       style="color:#000000;fill:#000000;fill-opacity:1;fill-rule:evenodd;stroke-width:90.7087;-inkscape-stroke:none"
       d="m 1239.8025,-1478.2482 c -146.1427,0 -265.2165,119.0738 -265.2165,265.2165 0,146.1427 119.0738,265.03936 265.2165,265.03936 146.1428,0 265.0394,-118.89666 265.0394,-265.03936 0,-146.1427 -118.8966,-265.2165 -265.0394,-265.2165 z m 0,49.2519 c 119.5079,0 215.7874,96.4567 215.7874,215.9646 0,119.5077 -96.2795,215.78737 -215.7874,215.78737 -119.5078,0 -215.9645,-96.27967 -215.9645,-215.78737 0,-119.5079 96.4567,-215.9646 215.9645,-215.9646 z"
       id="path4193" />
    <path
       id="path730"
       style="fill:#000000;fill-opacity:1;fill-rule:evenodd;stroke-width:26.5155;stroke-linecap:round;stroke-linejoin:round"
       inkscape:transform-center-x="0.26812357"
       inkscape:transform-center-y="-2.1149433e-06"
       d="m 1205.8293,-1202.4457 121.1841,69.9656 a 12.325772,12.325772 0 0 0 18.4887,-10.6744 v -139.9314 a 12.325772,12.325772 0 0 0 -18.4887,-10.6744 l -121.1841,69.9657 a 12.325769,12.325769 0 0 0 0,21.3489 z" />
    <g
       id="path732">
      <path
         style="color:#000000;fill-rule:evenodd;stroke-width:20.9533;-inkscape-stroke:none"
         d="m 1150.4511,-1304.4348 c 3.351,0 6.049,2.698 6.049,6.049 v 170.5311 c 0,3.351 -2.698,6.049 -6.049,6.049 -3.351,0 -6.0491,-2.698 -6.0491,-6.049 v -170.5311 c 0,-3.351 2.6981,-6.049 6.0491,-6.049 z"
         id="path4186" />
      <path
         style="color:#000000;fill:#000000;fill-rule:evenodd;-inkscape-stroke:none;fill-opacity:1"
         d="m 1150.4512,-1314.9121 c -8.9744,0 -16.5254,7.5508 -16.5254,16.5254 v 170.5312 c 0,8.9746 7.551,16.5274 16.5254,16.5274 8.9744,0 16.5254,-7.553 16.5254,-16.5274 v -170.5312 c 0,-8.9744 -7.551,-16.5254 -16.5254,-16.5254 z"
         id="path4188" />
    </g>
  </g>
</svg>
