<svg xmlns="http://www.w3.org/2000/svg" height="40" viewBox="0 -960 960 960" width="40"><path d="M257.833-246q-13.5 0-22.666-9.167Q226-264.333 226-277.833V-682.5q0-13.167 9.167-22.333Q244.333-714 257.833-714q13.167 0 22.333 9.167 9.167 9.166 9.167 22.333v404.667q0 13.5-9.167 22.666Q271-246 257.833-246Zm427.334-33.666-254.5-174.501q-13.5-9.5-13.5-25.833t13.5-26.167l254.5-174.167q15.5-10.833 32.166-2Q734-673.5 734-654.834V-305.5q0 19-16.667 27.834-16.666 8.833-32.166-2ZM670.667-480Zm0 114.001v-228.002L504.666-480l166.001 114.001Z"/></svg>